<?xml version="1.0" encoding="UTF-8"?>
<svg width="414px" height="414px" viewBox="0 0 414 414" version="1.1" xmlns="http://www.w3.org/2000/svg" xmlns:xlink="http://www.w3.org/1999/xlink">
    <title>background</title>
    <defs>
        <polygon id="path-1" points="0 0 414 0 414 414 0 414"></polygon>
    </defs>
    <g id="desafio" stroke="none" stroke-width="1" fill="none" fill-rule="evenodd">
        <g id="background">
            <mask id="mask-2" fill="white">
                <use xlink:href="#path-1"></use>
            </mask>
            <use fill="#44124A" xlink:href="#path-1"></use>
            <g id="texture" mask="url(#mask-2)" fill-rule="nonzero">
                <g transform="translate(-281.000000, -281.000000)" id="Combined-Shape">
                    <path d="M489.128077,585 C468.024331,585 448.508941,578.199414 432.653801,566.670144 C438.428435,563.372214 443.344275,558.746158 446.986962,553.208138 C459.088532,561.153446 473.568676,565.774308 489.128077,565.774308 C524.536303,565.774308 554.355363,541.844148 563.294763,509.274382 C571.32555,506.10719 578.659385,501.553317 585.000859,495.908597 C581.399082,545.71341 539.851498,585 489.128077,585 Z M411.424548,496.882247 C411.832533,496.882247 412.238821,496.889509 412.643292,496.90391 C414.775507,517.470057 425.013037,535.625532 440.104837,548.125707 C436.662039,553.725687 431.624087,558.24063 425.624087,561.037792 C408.675868,546.112845 397.028177,525.312583 393.864906,501.822161 C398.016535,499.277831 402.759421,497.60906 407.839722,497.070977 C409.017592,496.946222 410.213599,496.882247 411.424548,496.882247 Z M482.09033,392.999188 C476.446434,399.339976 471.893119,406.672866 468.724711,414.703533 C436.401054,423.576104 412.585842,453.015673 412.229665,488.074068 L411.825082,488.070471 C405.084881,488.070471 398.715017,489.656076 393.068146,492.474627 C393.022229,491.279483 393,490.078109 393,488.871542 C393,438.435775 431.8418,397.072032 481.24408,393.061747 Z M584.294344,475.220792 L584.27367,475.247858 C579.445812,482.050651 573.199755,487.776327 565.966464,491.99392 C566.009669,490.95797 566.030539,489.917193 566.030539,488.871542 C566.030539,449.53723 536.499738,417.100233 498.399451,412.521949 C495.359983,412.156714 492.265978,411.968776 489.128077,411.968776 C488.082723,411.968776 487.042241,411.989633 486.007024,412.030955 C490.229569,404.789166 495.964613,398.536506 502.778945,393.706252 C544.945298,399.69989 578.300105,433.055192 584.294344,475.220792 Z" stroke="none" fill="#B757C2" opacity="0.04"></path>
                    <path d="M488.219928,652.726045 C452.00848,652.726045 418.522423,641.057255 391.316792,621.274707 C401.22491,615.614719 409.659652,607.677151 415.909949,598.174854 C436.674695,611.807814 461.521349,619.736849 488.219928,619.736849 C548.961136,619.736849 600.116859,578.696513 615.470503,522.832437 C629.255585,517.391736 641.843333,509.570595 652.726354,499.876608 C646.535483,585.325953 575.248773,652.726045 488.219928,652.726045 Z M354.888595,501.525564 C355.588246,501.525564 356.284991,501.53801 356.978619,501.562693 C360.636781,536.848803 378.203611,568.003449 404.100619,589.453414 C398.194003,599.06224 389.54948,606.809481 379.25416,611.609221 C350.172412,586.000444 330.185868,550.309135 324.758013,510.001725 C331.881082,505.636382 340.019731,502.772737 348.737399,501.849404 C350.758503,501.635338 352.810729,501.525564 354.888595,501.525564 Z M476.121792,323.27543 C466.429245,334.157252 458.609095,346.743339 453.166985,360.528046 C397.724679,375.766391 356.881354,426.270604 356.270099,486.411122 L355.57587,486.405516 C344.011116,486.405516 333.081741,489.125891 323.392747,493.961635 C323.312094,491.911936 323.273949,489.850455 323.273949,487.780066 C323.273949,401.237774 389.922518,330.26209 474.691793,323.380877 Z M651.515393,464.355832 L651.445945,464.450628 C643.169086,476.113258 632.463235,485.931081 620.0658,493.16669 C620.140514,491.379479 620.176712,489.584 620.176712,487.780066 C620.176712,420.286664 569.504869,364.628305 504.128661,356.772467 C498.913243,356.145764 493.604246,355.823282 488.219928,355.823282 C486.417037,355.823282 484.622591,355.859438 482.837275,355.931065 C490.090292,343.501264 499.940913,332.772277 511.643979,324.486985 C583.997079,334.771994 641.229567,392.005262 651.515393,464.355832 Z" stroke="#ED4D77" stroke-width="2" fill="none" opacity="0.08" transform="translate(488.000151, 488.000737) rotate(-330.000000) translate(-488.000151, -488.000737) "></path>
                    <path d="M488.476938,844.905959 C410.018523,844.905959 337.465166,819.623401 278.51952,776.760939 C299.98772,764.498213 318.263426,747.299699 331.805918,726.710798 C376.795817,756.24986 430.630133,773.429368 488.476938,773.429368 C620.08283,773.429368 730.920191,684.508718 764.186473,563.469967 C794.053323,551.681953 821.325983,534.736844 844.905338,513.734128 C831.493559,698.872818 677.039182,844.905959 488.476938,844.905959 Z M199.592382,517.304916 C201.108171,517.304916 202.617662,517.331878 204.120403,517.385349 C212.047144,593.838953 250.108197,661.339963 306.217672,707.814627 C293.420757,728.634307 274.691229,745.419801 252.385044,755.819225 C189.374112,700.334236 146.069567,623.00248 134.309339,535.669067 C149.743727,526.211354 167.377021,520.007071 186.264792,518.006569 C190.643851,517.542761 195.090341,517.304916 199.592382,517.304916 Z M462.265308,131.09517 C441.264232,154.672816 424.320164,181.943204 412.528733,211.810704 C292.404808,244.826174 203.910936,354.251166 202.585661,484.55496 L201.081478,484.544812 C176.02406,484.544812 152.343342,490.43917 131.350242,500.916972 L131.340449,500.920186 C131.176618,496.474718 131.093982,492.008511 131.093982,487.523003 C131.093982,300.014705 275.499216,146.234056 459.165979,131.324762 Z M842.283692,436.769889 L842.133307,436.975889 C824.200111,462.244924 801.004095,483.516878 774.14298,499.19403 C774.304875,495.321663 774.383302,491.431492 774.383302,487.523003 C774.383302,341.287299 664.594309,220.694189 522.945858,203.673206 C511.645788,202.31535 500.142959,201.616639 488.476938,201.616639 C484.570835,201.616639 480.683027,201.694971 476.815,201.85015 C492.529697,174.918674 513.872342,151.672958 539.228493,133.721721 C695.993207,156.004798 819.997439,280.010173 842.283692,436.769889 Z" stroke="#ED4D77" stroke-width="2" fill="none" opacity="0.08" transform="translate(487.999660, 488.000565) rotate(-330.000000) translate(-487.999660, -488.000565) "></path>
                    <path d="M488.364772,742.051403 C432.534106,742.051403 380.905426,724.060567 338.959832,693.559995 C354.236046,684.832941 367.240835,672.594614 376.877558,657.943749 C408.892989,678.963861 447.201256,691.18863 488.364772,691.18863 C581.837842,691.18863 660.588062,628.15261 684.424417,542.271584 C705.697489,533.948379 725.132106,521.951382 741.947374,507.062726 C732.079459,638.489368 622.31622,742.051403 488.364772,742.051403 Z M282.794398,508.930361 C283.872988,508.930361 284.947098,508.949545 286.016404,508.987592 C291.657497,563.392639 318.741817,611.426183 358.669319,644.497417 C349.56283,659.312388 336.234682,671.257137 320.361323,678.657411 C275.523157,639.174063 244.707812,584.145183 236.339075,521.999176 C247.321864,515.268259 259.869821,510.853227 273.310479,509.429658 C276.426619,509.099611 279.590743,508.930361 282.794398,508.930361 Z M470.504642,234.043796 C455.514771,250.778298 443.405806,270.147022 434.957558,291.370157 C349.15226,314.648393 285.869629,392.671592 284.924412,485.625901 L283.854039,485.618257 C266.022786,485.618257 249.171235,489.812865 234.232297,497.269174 C234.109709,494.107512 234.050907,490.929392 234.050907,487.737539 C234.050907,354.306553 336.809734,244.876178 467.507081,234.266718 Z M740.231747,452.31739 L739.012029,454.001631 C726.360949,471.260502 710.217141,485.798744 691.621738,496.575224 C691.752584,493.645882 691.815863,490.6991 691.815863,487.737539 C691.815863,383.676149 613.689969,297.86204 512.89287,285.749902 C504.851735,284.78365 496.666317,284.286447 488.364772,284.286447 C485.799914,284.286447 483.246142,284.333909 480.704286,284.428002 C491.935516,265.300662 507.163201,248.80185 525.239293,236.077209 C636.664946,252.263082 724.676863,340.691633 740.231747,452.31739 Z" stroke="none" fill="#B757C2" opacity="0.04" transform="translate(487.999141, 488.047600) rotate(-285.000000) translate(-487.999141, -488.047600) "></path>
                </g>
            </g>
        </g>
    </g>
</svg>