<?xml version="1.0" encoding="UTF-8"?>
<svg width="380px" height="244px" viewBox="0 0 380 244" version="1.1" xmlns="http://www.w3.org/2000/svg" xmlns:xlink="http://www.w3.org/1999/xlink">
    <title>brand-insights@3x</title>
    <g id="desafio" stroke="none" stroke-width="1" fill="none" fill-rule="evenodd">
        <g id="marca-insights" transform="translate(-17.000000, -85.000000)" fill="#ED4D77">
            <g id="brand-insights" transform="translate(17.000000, 85.000000)">
                <path d="M19.2846228,213.812071 L27.9418706,165.528565 L13.3053381,165.528565 C11.0150436,165.528565 9.05526734,167.146831 8.65724775,169.36668 L0,217.650186 L14.6365325,217.650186 C16.926827,217.650186 18.8866032,216.03192 19.2846228,213.812071 Z M45.6186966,213.807749 L49.9366538,189.591845 L49.9366538,189.963478 C50.5030431,186.804592 51.7459529,184.358004 53.6653832,182.623714 C55.5848135,180.889423 57.9290357,180.022278 60.6980499,180.022278 C63.0265391,180.022278 64.8358382,180.657152 66.1259471,181.926901 C67.416056,183.196649 68.0611104,184.977394 68.0611104,187.269134 C68.0611104,188.322096 67.9981783,189.127303 67.872314,189.684753 L62.8692088,217.650186 L77.4050042,217.650186 C79.6981059,217.650186 81.6594315,216.028048 82.054381,213.804863 L86.7519563,187.362043 C87.1295491,185.318058 87.3183455,183.39795 87.3183455,181.601721 C87.3183455,176.39885 85.9023724,172.341849 83.070426,169.430719 C80.2384797,166.519588 76.2737548,165.064023 71.1762514,165.064023 C67.2744587,165.064023 63.7345257,165.900199 60.5564526,167.572551 C57.3783795,169.244902 54.7509626,171.474704 52.674202,174.261956 L54.2789716,165.528565 L39.6493975,165.528565 C37.3560216,165.528565 35.3945448,167.151082 34.9998957,169.374592 L26.4314992,217.650186 L40.9698335,217.650186 C43.2618111,217.650186 45.2225168,216.029599 45.6186966,213.807749 Z M114.033039,219.4619 C120.829711,219.4619 126.226142,218.207636 130.222333,215.699109 C134.080724,213.277083 136.457778,210.14773 137.353495,206.311051 L137.443796,205.897272 C137.695524,204.84431 137.821389,203.66747 137.821389,202.366752 C137.821389,199.083988 136.861673,196.436098 134.942243,194.423082 C133.022813,192.410067 130.757256,190.892563 128.145572,189.87057 C125.533888,188.848577 122.308616,187.873039 118.469755,186.943955 L117.431375,186.677847 C114.74627,185.974343 112.732442,185.319778 111.389889,184.714153 C109.879518,184.032825 109.124332,183.13471 109.124332,182.019809 C109.124332,180.904908 109.596323,180.084217 110.540306,179.557736 C111.484288,179.031255 112.774397,178.768014 114.410632,178.768014 C116.676189,178.768014 118.516954,179.232557 119.932928,180.161641 C120.186104,180.327761 120.424568,180.549573 120.648319,180.827077 C122.439012,183.04794 125.162023,184.342519 128.042693,184.342519 L140.37014,184.342519 C139.803751,178.829953 137.506728,174.401319 133.479071,171.056616 C129.451414,167.711913 123.630191,166.039562 116.015402,166.039562 C109.218731,166.039562 103.838033,167.324795 99.8733077,169.895261 C95.9085828,172.465727 93.5800936,175.763976 92.88784,179.790007 C92.6361115,181.40042 92.5102472,182.54629 92.5102472,183.227618 C92.5102472,186.510382 93.4384963,189.142787 95.2949944,191.124834 C97.1514926,193.10688 99.3226514,194.562445 101.808471,195.491529 C104.294291,196.420613 107.488097,197.380667 111.389889,198.37169 L112.399006,198.612323 C115.338567,199.331434 117.488014,200.02546 118.847348,200.6944 C120.35772,201.437668 120.987041,202.49063 120.735312,203.853286 C120.294787,205.835333 118.564154,206.826356 115.543411,206.826356 C113.026125,206.826356 110.996564,206.346329 109.454726,205.386275 C109.179773,205.215071 108.929962,204.988838 108.705292,204.707575 C106.915576,202.467042 104.180036,201.158942 101.284289,201.158942 L89.2063098,201.158942 C89.5209705,206.981203 91.9123918,211.487261 96.3805738,214.677117 C100.848756,217.866972 106.732911,219.4619 114.033039,219.4619 Z M353.662899,219.972896 C360.45957,219.972896 365.856001,218.718633 369.852192,216.210106 C373.710584,213.788079 376.087638,210.658727 376.983354,206.822047 L377.073655,206.408268 C377.325384,205.355306 377.451248,204.178466 377.451248,202.877748 C377.451248,199.594984 376.491533,196.947094 374.572103,194.934079 C372.652673,192.921063 370.387115,191.403559 367.775432,190.381566 C365.163748,189.359574 361.938476,188.384035 358.099615,187.454951 L357.061235,187.188843 C354.37613,186.485339 352.362301,185.830775 351.019749,185.225149 C349.509378,184.543821 348.754192,183.645706 348.754192,182.530805 C348.754192,181.415904 349.226183,180.595213 350.170165,180.068732 C351.114147,179.542251 352.404256,179.279011 354.040492,179.279011 C356.306049,179.279011 358.146814,179.743553 359.562787,180.672637 C359.815963,180.838757 360.054427,181.060569 360.278179,181.338073 C362.068872,183.558936 364.791883,184.853516 367.672553,184.853516 L380,184.853516 C379.433611,179.34095 377.136588,174.912315 373.108931,171.567612 C369.081274,168.222909 363.260051,166.550558 355.645261,166.550558 C348.84859,166.550558 343.467892,167.835791 339.503167,170.406257 C335.538442,172.976723 333.209953,176.274972 332.5177,180.301003 C332.265971,181.911416 332.140107,183.057286 332.140107,183.738615 C332.140107,187.021379 333.068356,189.653784 334.924854,191.63583 C336.781352,193.617876 338.952511,195.073441 341.438331,196.002525 C343.92415,196.93161 347.117956,197.891663 351.019749,198.882686 L352.028866,199.123319 C354.968426,199.84243 357.117874,200.536456 358.477208,201.205397 C359.987579,201.948664 360.616901,203.001626 360.365172,204.364283 C359.924647,206.346329 358.194013,207.337352 355.17327,207.337352 C352.655985,207.337352 350.626423,206.857325 349.084586,205.897272 C348.809633,205.726067 348.559821,205.499834 348.335151,205.218572 C346.545436,202.978039 343.809896,201.669939 340.914149,201.669939 L328.836169,201.669939 C329.15083,207.492199 331.542251,211.998257 336.010433,215.188113 C340.478615,218.377969 346.362771,219.972896 353.662899,219.972896 Z M160.268352,213.812071 L168.925599,165.528565 L154.289067,165.528565 C151.998772,165.528565 150.038996,167.146831 149.640976,169.36668 L140.983729,217.650186 L155.620261,217.650186 C157.910556,217.650186 159.870332,216.03192 160.268352,213.812071 Z M192.289157,243.2 C198.141846,243.2 203.223616,242.02316 207.534468,239.66948 C211.845319,237.3158 215.243655,234.187884 217.729475,230.28573 C220.215294,226.383577 221.898729,221.985912 222.779779,217.092735 L232.030804,165.528565 L217.526839,165.528565 C215.261573,165.528565 213.315753,167.112492 212.890746,169.302416 L212.018383,173.797414 C211.263197,171.072101 209.579762,168.904238 206.968078,167.293825 C204.356395,165.683413 201.06819,164.878206 197.103465,164.878206 C193.012876,164.878206 189.126817,165.884714 185.445286,167.89773 C181.763756,169.910746 178.632882,172.806391 176.052664,176.584667 C173.472446,180.362942 171.710347,184.822546 170.766364,189.963478 C170.325839,192.379097 170.105577,194.825685 170.105577,197.303243 C170.105577,201.638969 170.876496,205.386275 172.418333,208.545161 C173.960171,211.704047 176.099863,214.119666 178.837412,215.792018 C181.57496,217.464369 184.7373,218.300545 188.324432,218.300545 C192.10036,218.300545 195.482963,217.495339 198.472239,215.884926 C201.461516,214.274514 203.868671,212.106651 205.693703,209.381337 L204.277729,217.092735 C203.082019,223.967958 199.337556,227.40557 193.044342,227.40557 C190.589989,227.40557 188.717758,226.941027 187.427649,226.011943 C186.831638,225.582721 186.648649,224.811441 186.878682,223.698104 L186.934241,223.454283 C187.089173,222.831306 186.701649,222.202668 186.068683,222.050181 C185.976866,222.028061 185.882681,222.016881 185.788153,222.016881 L177.256241,222.016881 C173.016017,222.016881 169.578635,225.400014 169.578635,229.57332 C169.578635,230.674633 169.823228,231.762635 170.295321,232.761133 C171.282947,234.850183 172.399676,236.440667 173.64551,237.532587 C177.956362,241.310862 184.17091,243.2 192.289157,243.2 Z M197.292262,202.320298 C194.837908,202.320298 192.887012,201.623484 191.439573,200.229858 C189.992133,198.836232 189.268414,196.838701 189.268414,194.237266 C189.268414,193.37012 189.362812,192.472006 189.551608,191.542921 C190.18093,188.198219 191.565437,185.581298 193.70513,183.69216 C195.844823,181.803023 198.330642,180.858454 201.162588,180.858454 C203.55401,180.858454 205.489173,181.570752 206.968078,182.995347 C208.446984,184.419943 209.186436,186.401989 209.186436,188.941486 C209.186436,189.612491 209.120882,190.326509 208.989774,191.083541 L208.903242,191.542921 C208.336853,194.887624 206.968078,197.520029 204.79692,199.440137 C202.625761,201.360244 200.124208,202.320298 197.292262,202.320298 Z M249.516529,213.804467 L253.931189,188.941486 C254.623442,186.092294 255.913551,183.893462 257.801515,182.344988 C259.68948,180.796515 261.955037,180.022278 264.598187,180.022278 C266.926676,180.022278 268.735975,180.641668 270.026084,181.880446 C271.316193,183.119225 271.961247,184.884485 271.961247,187.176226 C271.961247,187.919493 271.866849,188.755669 271.678052,189.684753 L266.674947,217.650186 L281.210743,217.650186 C283.503844,217.650186 285.46517,216.028048 285.860119,213.804863 L290.557695,187.362043 C290.935288,185.318058 291.124084,183.366981 291.124084,181.508813 C291.124084,176.305941 289.723844,172.264425 286.923364,169.384265 C284.122883,166.504104 280.80021,165.594018 273.830609,165.594018 C266.861008,165.594018 258.651099,171.381796 256.574339,174.169048 L261.105453,148.897959 L246.472022,148.897959 C244.180353,148.897959 242.219818,150.518119 241.8233,152.739601 L230.237238,217.650186 L244.867082,217.650186 C247.160338,217.650186 249.121749,216.027835 249.516529,213.804467 Z M323.649177,213.847725 L325.862626,202.041572 L320.765122,202.041572 C319.317683,202.041572 318.279303,201.793817 317.649981,201.298305 C317.02066,200.802793 316.705999,199.997587 316.705999,198.882686 C316.705999,198.418144 316.727851,198.039628 316.771554,197.747139 L319.82114,180.765545 L329.449758,180.765545 L331.207357,170.982883 C331.661262,168.456483 329.948332,166.046275 327.38142,165.599533 C327.110094,165.552312 326.835088,165.528565 326.559553,165.528565 L322.558688,165.528565 L324.824245,152.893021 L310.282111,152.893021 C307.991817,152.893021 306.03204,154.511287 305.634021,156.731136 L304.056639,165.528565 L273.884167,165.591786 L270.828469,180.765545 L301.319091,180.765545 L298.298348,197.210335 C297.920755,199.25432 297.731959,201.143458 297.731959,202.877748 C297.731959,212.72604 303.616114,217.650186 315.384424,217.650186 L319.007625,217.650186 C321.284034,217.650186 323.236099,216.051012 323.649177,213.847725 Z" id="logo" fill-rule="nonzero"></path>
                <path d="M206.772768,42.8223886 L323.731055,120.989541 C325.833915,122.394952 326.345747,125.354052 324.874266,127.598876 C323.907531,129.073681 321.06658,129.073681 321.06658,129.034791 L200.684354,128.875024 C195.557658,128.880793 191.610059,124.591447 191.867143,119.294502 C191.95468,117.490913 192.532652,115.723319 193.53472,114.194611 L219.229099,74.9964577 L203.758021,64.6566165 L164.581028,124.423219 C162.747261,127.220729 159.694865,128.921147 156.500409,128.924742 L58.7002581,129.034791 C56.1369103,129.037675 54.1631105,126.893002 54.2916528,124.244529 C54.3354209,123.342735 54.6244073,122.458938 55.125441,121.694584 L94.9200887,60.9857158 C96.7538559,58.1882056 99.8062524,56.4877875 103.000708,56.484193 L142.397578,56.439862 L157.344787,33.6370931 L141.873709,23.2972519 L129.87346,41.6042746 C128.039693,44.4017848 124.987296,46.1022029 121.79284,46.1057974 L108.857491,46.1203528 C107.575817,46.121795 106.588917,45.0494585 106.653188,43.7252222 C106.675072,43.2743249 106.819565,42.8324264 107.070082,42.4502495 L131.944622,4.50280536 C134.887585,0.0131575073 140.682737,-1.347799 144.888455,1.46302393 L176.071436,22.3036572 C180.277154,25.1144801 181.30082,31.032681 178.357857,35.5223288 L154.02143,72.6488518 C152.187663,75.446362 149.135267,77.1467802 145.94081,77.1503747 L106.543941,77.1947057 L86.1613833,108.289391 L152.957176,108.214229 L193.828935,45.86217 C196.771898,41.3725221 202.567049,40.0115656 206.772768,42.8223886 Z M268.736549,108.083949 L234.700177,85.3362988 L219.752968,108.139068 L268.736549,108.083949 Z" id="Shape"></path>
            </g>
        </g>
    </g>
</svg>